<svg id="Capa_1" enable-background="new 0 0 512 512" height="512" viewBox="0 0 512 512" width="512" xmlns="http://www.w3.org/2000/svg"><g><g><path d="m451.246 262.749h-29.091v-158.235h89.845v97.482c0 33.499-27.255 60.753-60.754 60.753z" fill="#fd3e81"/></g><g><path d="m451.246 158.236h-29.091l23.751-158.236h66.094v97.482c0 33.5-27.255 60.754-60.754 60.754z" fill="#2453b3"/></g><g><path d="m38.86 0v512h213.982l41.881-249.251-41.881-262.749z" fill="#99f"/><path d="m252.842 0h193.063v512h-193.063z" fill="#8080ff"/></g><g><g><g><path d="m38.86 443.274h-38.86v-29.947h38.86l10 14.973z" fill="#2453b3"/></g><g><path d="m38.86 374.435h-38.86v-29.947h38.86l10 17.252z" fill="#2453b3"/></g><g><path d="m38.86 305.597h-38.86v-29.947h38.86l10 17.881z" fill="#2453b3"/></g><g><path d="m38.86 236.759h-38.86v-29.947h38.86l10 14.974z" fill="#2453b3"/></g><g><path d="m38.86 167.921h-38.86v-29.947h38.86l10 14.825z" fill="#2453b3"/></g><g><path d="m38.86 99.083h-38.86v-29.947h38.86l10 14.973z" fill="#2453b3"/></g></g><g><path d="m38.86 413.327h41.315v29.947h-41.315z" fill="#1f3399"/></g><g><path d="m38.86 344.488h41.315v29.947h-41.315z" fill="#1f3399"/></g><g><path d="m38.86 275.65h41.315v29.947h-41.315z" fill="#1f3399"/></g><g><path d="m38.86 206.812h41.315v29.947h-41.315z" fill="#1f3399"/></g><g><path d="m38.86 137.974h41.315v29.947h-41.315z" fill="#1f3399"/></g><g><path d="m38.86 69.136h41.315v29.947h-41.315z" fill="#1f3399"/></g></g><g><g><path d="m252.842 204.95h-34.767l-11.662-43.439 11.662-45.072h34.767z" fill="#ffc31a"/></g><g><path d="m218.075 236.542v-120.103h-22.56c-29.306 0-53.063 23.757-53.063 53.063v68.847c0 62.799 48.698 114.218 110.391 118.568l35.003-38.104-35.003-38.409c-19.924-4.656-34.768-22.519-34.768-43.862z" fill="#ffe673"/></g><path d="m294.723 281.599v-34.768h88.511v34.768l-44.255 21.508z" fill="#ff9b00"/><path d="m263.131 281.599c-3.542 0-6.983-.422-10.289-1.194v76.513c2.802.198 5.629.304 8.482.304h68.847c29.306 0 53.063-23.757 53.063-53.063v-22.56z" fill="#ffc31a"/></g></g></svg>